PathFileType	4	(X/Y/Z)	 New Session 107.trc
DataRate	CameraRate	NumFrames	NumMarkers	Units	OrigDataRate	OrigDataStartFrame	OrigNumFrames
100	100	9	14	m	100	114	909
Frame#	Time	C7			T8			IJ			PX			AA			AC			AI			TS			SC			GH			LE			ME			US			RS			
		X1	Y1	Z1	X2	Y2	Z2	X3	Y3	Z3	X4	Y4	Z4	X5	Y5	Z5	X6	Y6	Z6	X7	Y7	Z7	X8	Y8	Z8	X9	Y9	Z9	X10	Y10	Z10	X11	Y11	Z11	X12	Y12	Z12	X13	Y13	Z13	X14	Y14	Z14	
114	1.1400	0.015964	0.105644	0.165177	0.015085	-0.106722	0.239006	-0.001344	-0.000816	0.001455	0.005117	-0.143482	-0.064057	0.210787	0.007711	0.155185	0.165693	0.046743	0.080070	0.094613	0.031938	0.207678	0.095874	-0.086117	0.244435	0.023472	0.008001	0.006083	0.224700	0.018546	0.116486	0.326361	-0.255827	0.074512	0.245417	-0.312094	0.084170	0.332674	-0.410555	-0.163549	0.329777	-0.333917	-0.184999	
115	1.1500	0.015952	0.105647	0.165263	0.015077	-0.106723	0.239043	-0.001348	-0.000819	0.001518	0.005123	-0.143461	-0.064029	0.210788	0.007708	0.155238	0.165691	0.046746	0.080139	0.094621	0.031929	0.207744	0.095873	-0.086138	0.244478	0.023481	0.007972	0.006161	0.224721	0.018558	0.116568	0.326389	-0.255820	0.074569	0.245425	-0.312096	0.084204	0.332693	-0.410553	-0.163502	0.329795	-0.333938	-0.184972	
116	1.1600	0.015931	0.105659	0.165365	0.015080	-0.106731	0.239082	-0.001356	-0.000814	0.001585	0.005130	-0.143446	-0.063991	0.210798	0.007703	0.155299	0.165695	0.046748	0.080225	0.094635	0.031911	0.207821	0.095885	-0.086161	0.244522	0.023492	0.007940	0.006240	0.224727	0.018560	0.116641	0.326418	-0.255821	0.074627	0.245425	-0.312101	0.084232	0.332710	-0.410546	-0.163453	0.329805	-0.333969	-0.184949	
117	1.1700	0.015905	0.105677	0.165474	0.015089	-0.106747	0.239124	-0.001370	-0.000799	0.001654	0.005139	-0.143436	-0.063943	0.210811	0.007699	0.155365	0.165702	0.046750	0.080316	0.094632	0.031889	0.207903	0.095909	-0.086178	0.244594	0.023502	0.007924	0.006318	0.224725	0.018557	0.116708	0.326439	-0.255825	0.074679	0.245418	-0.312108	0.084253	0.332718	-0.410517	-0.163406	0.329804	-0.333992	-0.184928	
118	1.1800	0.015890	0.105689	0.165573	0.015101	-0.106767	0.239168	-0.001389	-0.000780	0.001721	0.005149	-0.143432	-0.063883	0.210819	0.007695	0.155433	0.165706	0.046755	0.080398	0.094610	0.031875	0.207976	0.095942	-0.086183	0.244714	0.023508	0.007929	0.006398	0.224721	0.018553	0.116772	0.326454	-0.255829	0.074725	0.245404	-0.312115	0.084269	0.332718	-0.410468	-0.163368	0.329799	-0.333986	-0.184904	
119	1.1900	0.015888	0.105690	0.165654	0.015111	-0.106786	0.239212	-0.001404	-0.000766	0.001785	0.005161	-0.143434	-0.063816	0.210820	0.007689	0.155500	0.165704	0.046763	0.080468	0.094585	0.031878	0.208036	0.095981	-0.086175	0.244889	0.023509	0.007943	0.006475	0.224718	0.018550	0.116833	0.326482	-0.255827	0.074768	0.245388	-0.312120	0.084282	0.332718	-0.410420	-0.163340	0.329800	-0.333945	-0.184874	
120	1.2000	0.015894	0.105680	0.165724	0.015118	-0.106803	0.239259	-0.001408	-0.000764	0.001846	0.005175	-0.143438	-0.063745	0.210812	0.007677	0.155565	0.165699	0.046771	0.080529	0.094578	0.031883	0.208089	0.096022	-0.086163	0.245100	0.023504	0.007949	0.006547	0.224713	0.018547	0.116893	0.326542	-0.255821	0.074815	0.245373	-0.312125	0.084293	0.332718	-0.410377	-0.163323	0.329814	-0.333874	-0.184835	
121	1.2100	0.015899	0.105663	0.165794	0.015122	-0.106819	0.239310	-0.001399	-0.000775	0.001904	0.005190	-0.143443	-0.063675	0.210801	0.007658	0.155626	0.165695	0.046775	0.080592	0.094589	0.031871	0.208149	0.096057	-0.086158	0.245296	0.023499	0.007946	0.006616	0.224711	0.018544	0.116954	0.326625	-0.255813	0.074871	0.245361	-0.312130	0.084304	0.332717	-0.410335	-0.163313	0.329846	-0.333791	-0.184789	
122	1.2200	0.015903	0.105644	0.165871	0.015122	-0.106835	0.239365	-0.001380	-0.000790	0.001962	0.005205	-0.143447	-0.063608	0.210793	0.007636	0.155687	0.165694	0.046774	0.080663	0.094603	0.031848	0.208216	0.096075	-0.086169	0.245420	0.023499	0.007938	0.006686	0.224712	0.018541	0.117016	0.326705	-0.255806	0.074929	0.245353	-0.312137	0.084316	0.332713	-0.410293	-0.163302	0.329887	-0.333718	-0.184744	
